<svg width="200" height="81" viewBox="0 0 200 81" fill="none" xmlns="http://www.w3.org/2000/svg">
<path d="M10.1543 80.326L9.01035 77.9701H2.98099L1.83031 80.326H0.00671387L5.00648 70.316H6.98486L11.9779 80.326H10.1543ZM5.99567 71.7552L3.69094 76.5074H8.30377L5.99567 71.7552Z" fill="#E34E4D"/>
<path d="M29.9953 80.326V70.316H31.7448V78.8667H38.8105V80.326H29.9953Z" fill="#E34E4D"/>
<path d="M56.8312 80.326V70.316H58.5808V78.8667H65.6464V80.326H56.8312Z" fill="#E34E4D"/>
<path d="M83.6704 80.326V70.316H85.42V80.326H83.6704Z" fill="#E34E4D"/>
<path d="M113.588 80.326L112.444 77.9701H106.415L105.264 80.326H103.441L108.44 70.316H110.419L115.412 80.326H113.588ZM109.43 71.7552L107.125 76.5074H111.738L109.43 71.7552Z" fill="#E34E4D"/>
<path d="M142.238 80.326L135.179 71.9776V80.326H133.429V70.316H135.781L142.847 78.6644V70.316H144.596V80.326H142.238Z" fill="#E34E4D"/>
<path d="M165.595 79.925C164.653 79.4632 163.923 78.8262 163.401 78.0376C162.879 77.2422 162.62 76.3355 162.62 75.3244C162.62 74.3066 162.873 73.4033 163.388 72.6113C163.902 71.8159 164.619 71.1789 165.541 70.7171C166.463 70.2554 167.539 70.0195 168.761 70.0195C169.562 70.0195 170.393 70.2015 171.254 70.5621C172.115 70.9227 172.724 71.3036 173.098 71.7215L172.014 72.955C171.812 72.7023 171.405 72.4259 170.78 72.1192C170.157 71.8192 169.471 71.6642 168.714 71.6642C167.886 71.6642 167.142 71.8058 166.483 72.0922C165.824 72.3787 165.292 72.7966 164.898 73.3426C164.511 73.892 164.309 74.556 164.309 75.3244C164.309 76.0861 164.511 76.7501 164.898 77.2995C165.292 77.8488 165.82 78.2701 166.483 78.5499C167.146 78.8364 167.886 78.9779 168.714 78.9779C169.316 78.9779 169.948 78.8498 170.605 78.6038C171.254 78.351 171.722 78.0477 172.001 77.7073L173.084 78.9408C172.576 79.4295 171.947 79.8306 171.2 80.1474C170.446 80.4609 169.669 80.6226 168.868 80.6226C167.624 80.6193 166.53 80.3867 165.595 79.925Z" fill="#E34E4D"/>
<path d="M191.122 80.326V70.316H199.937V71.7754H192.871V74.593H198.759V76.0524H192.871V78.8633H199.937V80.3227H191.122V80.326Z" fill="#E34E4D"/>
<path d="M40.1562 26.7877C38.4437 26.3226 36.8892 25.5845 35.5299 24.6071C34.1673 23.6128 33.094 22.3287 32.2966 20.7749C31.4958 19.2044 31.0954 17.3405 31.0954 15.1599V0.707764H37.3737V15.1599C37.3737 16.4912 37.7573 17.5967 38.511 18.4966C39.2646 19.3796 40.274 20.0537 41.5223 20.5019C42.7537 20.9671 44.0995 21.1929 45.5093 21.1929C46.9359 21.1929 48.2784 20.9704 49.5132 20.5356C50.7614 20.0874 51.754 19.4302 52.5244 18.5471C53.2781 17.6472 53.6617 16.5249 53.6617 15.1633V0.711137H59.9333V15.1633C59.9333 17.3439 59.5329 19.2043 58.7321 20.7783C57.9313 22.3354 56.8412 23.6162 55.4819 24.6104C54.1193 25.5878 52.585 26.3259 50.8691 26.7911C49.1397 27.2562 47.3632 27.482 45.5059 27.482C43.6655 27.4752 41.8722 27.2528 40.1562 26.7877Z" fill="#E34E4D"/>
<path d="M65.4243 26.7709V0.704407H71.6992V26.7709H65.4243Z" fill="#E34E4D"/>
<path d="M77.1869 26.7709V0.704407H83.4618V21.1862H93.6464V26.7675H77.1869V26.7709Z" fill="#E34E4D"/>
<path d="M124.345 26.7709V0.704407H130.62V26.7709H124.345Z" fill="#E34E4D"/>
<path d="M157.779 26.7709L142.389 8.56412V26.7709H136.114V0.704407H143.271L158.677 18.9112V0.704407H164.952V26.7709H157.779Z" fill="#E34E4D"/>
<path d="M25.2445 14.806C24.4908 13.7309 23.6261 12.9759 22.6504 12.5277C23.1618 12.1434 23.6766 11.5166 24.188 10.6841C24.6994 9.8516 24.9551 8.918 24.9551 7.92374C24.9551 5.551 24.1241 3.77145 22.4586 2.53453C20.81 1.31445 18.5826 0.704407 15.7967 0.704407H0.00673574V6.28574H15.7967C16.5639 6.28574 17.2368 6.461 17.8121 6.81489C18.3875 7.16878 18.6768 7.71478 18.6768 8.4529C18.6768 9.17415 18.4043 9.72015 17.876 10.074C17.3478 10.4279 16.6581 10.6032 15.7934 10.6032H0.00336787V16.1845H17.1998C17.7112 16.1845 18.1923 16.2654 18.6398 16.4238C19.0705 16.6024 19.4237 16.8586 19.6795 17.226C19.952 17.5799 20.0798 18.0618 20.0798 18.6853C20.0798 20.3537 19.1209 21.1862 17.1964 21.1862H0V26.7675H17.1964C19.8881 26.7675 22.0818 26.0125 23.7944 24.4891C25.4901 22.9657 26.3548 21.0412 26.3548 18.682C26.3649 17.1788 25.9813 15.8778 25.2445 14.806Z" fill="#E34E4D"/>
<path d="M117.659 6.86544C116.364 4.90726 114.618 3.38385 112.441 2.32555C110.247 1.25041 107.845 0.704407 105.187 0.704407H97.0547V6.28574H105.187C106.708 6.28574 108.084 6.60593 109.319 7.21596C110.553 7.826 111.529 8.69218 112.249 9.81452C112.969 10.92 113.339 12.2378 113.339 13.7444C113.339 15.2509 112.973 16.5519 112.249 17.6742C111.529 18.7797 110.553 19.6459 109.319 20.2559C108.087 20.8828 106.708 21.1862 105.187 21.1862H97.0547V26.7675H105.187C107.845 26.7675 110.247 26.2383 112.441 25.1632C114.618 24.088 116.364 22.5646 117.659 20.6233C118.958 18.6651 119.614 16.3733 119.614 13.741C119.614 11.1155 118.958 8.82026 117.659 6.86544Z" fill="#E34E4D"/>
<path d="M180.702 6.94296C182.175 6.31607 183.841 6.01274 185.728 6.01274C185.856 6.01274 186.112 6.01274 186.112 6.01274H199.93V0H186.109C182.875 0 180.025 0.593191 177.559 1.79641C175.093 2.98278 173.172 4.60393 171.779 6.69019C170.386 8.75959 169.679 11.1155 169.679 13.7477C169.679 16.38 170.383 18.719 171.779 20.8053C173.172 22.8747 175.093 24.5093 177.559 25.6991C180.025 26.8854 182.875 27.4786 186.109 27.4786C189.248 27.4786 191.761 26.8214 193.652 25.5204V26.7708H199.93V12.5108H184.894V18.0921H193.302C192.71 19.0224 191.717 19.8077 190.308 20.4817C188.898 21.139 187.36 21.4591 185.728 21.4591C183.935 21.4591 182.3 21.1558 180.83 20.5458C179.339 19.9189 178.172 19.0392 177.29 17.8832C176.408 16.7271 175.961 15.3487 175.961 13.7444C175.961 12.1266 176.378 10.7447 177.226 9.59207C178.057 8.43603 179.228 7.553 180.702 6.94296Z" fill="#E34E4D"/>
<path d="M23.4713 44.199H0.00671387V49.7803H23.4713V44.199Z" fill="#E34E4D"/>
<path d="M51.5286 33.9464V52.1531L36.1221 33.9464H28.9657V54.4315H0.00671387V60.0128H33.9486H35.244V41.8094L50.6302 60.0128H57.8035V33.9464H51.5286Z" fill="#E34E4D"/>
<path d="M23.4747 33.9464H0.00671387V39.5277H23.4747V33.9464Z" fill="#E34E4D"/>
<path d="M191.99 33.9463L183.662 41.951L174.602 33.2419H166.335H155.932C152.698 33.2419 149.845 33.8351 147.382 35.0383C144.916 36.2247 142.995 37.8459 141.602 39.9321C140.209 42.0015 139.502 44.3574 139.502 46.9897C139.502 49.6219 140.206 51.961 141.602 54.0472C142.995 56.1166 144.916 57.7513 147.382 58.941C149.848 60.1274 152.698 60.7206 155.932 60.7206C159.071 60.7206 161.584 60.0633 163.475 58.7624V60.0128H169.753V45.7528H154.717V51.3341H163.125C162.533 52.2643 161.54 53.0496 160.131 53.7237C158.721 54.3809 157.183 54.7011 155.551 54.7011C153.758 54.7011 152.123 54.3977 150.653 53.7877C149.162 53.1608 147.995 52.2812 147.113 51.1251C146.231 49.9691 145.784 48.5906 145.784 46.9863C145.784 45.3685 146.201 43.9867 147.049 42.834C147.88 41.678 149.051 40.7949 150.525 40.1883C151.998 39.5614 153.664 39.258 155.551 39.258C155.679 39.258 155.935 39.258 155.935 39.258H172.489L180.527 47.1178V60.0128H186.802V47.1178L199.934 33.9497H191.99V33.9463Z" fill="#E34E4D"/>
<path d="M110.321 54.4281H63.6882V60.0128H110.321V54.4281Z" fill="#E34E4D"/>
<path d="M88.1622 44.199H63.6882V49.7837H88.1622V44.199Z" fill="#E34E4D"/>
<path d="M132.329 48.9108L132.322 48.9074C134.876 47.5964 136.629 44.9371 136.629 41.8634C136.629 37.492 133.09 33.9464 128.726 33.9464H115.812V33.943H63.6882V39.5277H115.812H128.726C130.011 39.5277 131.054 40.5725 131.054 41.86C131.054 43.1475 130.011 44.1923 128.726 44.1923H93.6499V49.7736H125.866L131.959 60.0061H139.149L132.329 48.9108Z" fill="#E34E4D"/>
</svg>
