<svg width="52" height="37" viewBox="0 0 52 37" fill="none" xmlns="http://www.w3.org/2000/svg">
<path fill-rule="evenodd" clip-rule="evenodd" d="M5.1242 35.0156C4.79154 35.6806 5.27503 36.4631 6.01852 36.4631H15.2001L22.4001 22.0717L22.4001 1.48456C22.4001 0.932274 21.9523 0.484558 21.4001 0.484558L1.80005 0.484558C1.24776 0.484558 0.800049 0.932273 0.800049 1.48456L0.800049 21.0717C0.800049 21.624 1.24776 22.0717 1.80005 22.0717H11.6001L5.1242 35.0156ZM33.9247 35.0156C33.592 35.6806 34.0755 36.4631 34.819 36.4631H44.0005L51.2005 22.0717V1.48456C51.2005 0.932274 50.7528 0.484558 50.2005 0.484558L30.6005 0.484558C30.0482 0.484558 29.6005 0.932273 29.6005 1.48456L29.6005 21.0717C29.6005 21.624 30.0482 22.0717 30.6005 22.0717H40.4005L33.9247 35.0156Z" fill="#363F53"/>
</svg>
